<?xml version="1.0" standalone="no"?>
<!DOCTYPE svg PUBLIC "-//W3C//DTD SVG 20010904//EN"
 "http://www.w3.org/TR/2001/REC-SVG-20010904/DTD/svg10.dtd">
<svg version="1.0" xmlns="http://www.w3.org/2000/svg"
 width="1971.000000pt" height="1971.000000pt" viewBox="0 0 1971.000000 1971.000000"
 preserveAspectRatio="xMidYMid meet">
<metadata>
Created by potrace 1.11, written by Peter Selinger 2001-2013
</metadata>
<g transform="translate(0.000000,1971.000000) scale(0.100000,-0.100000)"
fill="#000000" stroke="none">
<path d="M9537 19705 c-1 -2 -67 -5 -147 -9 -80 -4 -170 -8 -200 -11 -30 -2
-92 -6 -138 -9 -46 -4 -100 -8 -120 -10 -20 -3 -64 -7 -97 -11 -131 -13 -302
-34 -338 -41 -10 -2 -46 -6 -80 -9 -34 -4 -65 -9 -68 -11 -4 -2 -27 -6 -50 -9
-65 -8 -351 -59 -449 -80 -14 -3 -45 -10 -70 -15 -25 -5 -56 -12 -70 -15 -14
-3 -36 -8 -50 -11 -14 -3 -90 -21 -170 -40 -948 -231 -1885 -620 -2735 -1134
-287 -174 -700 -459 -960 -664 -95 -75 -434 -357 -470 -391 -12 -11 -66 -60
-121 -110 -130 -117 -494 -481 -615 -615 -81 -90 -162 -181 -278 -315 -92
-107 -343 -428 -472 -607 -143 -197 -330 -485 -471 -723 -48 -82 -92 -157 -98
-165 -5 -8 -21 -37 -36 -65 -15 -27 -54 -102 -88 -165 -60 -111 -246 -485
-246 -494 0 -3 -18 -44 -41 -93 -22 -48 -44 -97 -49 -108 -4 -11 -15 -36 -23
-55 -9 -19 -25 -59 -37 -89 -11 -30 -30 -74 -41 -97 -10 -24 -19 -46 -19 -49
0 -4 -6 -21 -14 -38 -46 -102 -190 -522 -271 -792 -63 -209 -199 -762 -211
-859 -2 -17 -8 -51 -14 -76 -10 -47 -18 -88 -25 -130 -2 -14 -13 -81 -24 -150
-32 -199 -43 -283 -56 -405 -3 -33 -8 -70 -11 -82 -2 -13 -7 -51 -9 -85 -3
-35 -7 -85 -10 -113 -2 -27 -7 -86 -10 -130 -4 -44 -8 -98 -10 -120 -23 -262
-23 -1050 0 -1285 1 -19 6 -81 10 -138 3 -56 8 -112 10 -125 2 -12 6 -56 10
-97 3 -41 8 -88 10 -105 2 -16 7 -52 10 -80 3 -27 8 -63 10 -80 2 -16 7 -52
10 -80 6 -49 21 -155 30 -205 3 -14 7 -45 11 -70 3 -25 7 -52 9 -60 2 -8 7
-31 10 -50 3 -19 10 -57 15 -85 6 -27 12 -61 15 -75 33 -170 36 -183 55 -265
6 -27 14 -61 16 -75 23 -121 126 -498 208 -760 86 -274 262 -746 352 -938 19
-41 34 -76 34 -78 0 -22 283 -591 376 -754 154 -273 176 -310 267 -455 253
-402 598 -872 859 -1170 222 -254 316 -354 537 -575 141 -141 296 -292 345
-335 49 -44 94 -84 100 -90 6 -5 47 -41 91 -79 44 -37 91 -78 105 -90 55 -48
331 -267 425 -337 202 -152 680 -479 699 -479 2 0 31 -17 63 -38 143 -94 478
-280 743 -412 537 -269 1053 -470 1650 -645 206 -60 651 -168 824 -199 16 -3
52 -10 80 -15 28 -6 65 -13 81 -16 165 -28 207 -35 250 -41 28 -3 59 -8 70
-10 11 -2 74 -11 140 -19 66 -8 138 -17 160 -20 22 -3 65 -8 95 -10 30 -3 73
-7 95 -10 40 -4 168 -15 235 -20 375 -27 1061 -27 1415 0 197 15 295 23 345
30 19 3 60 8 90 10 83 8 192 22 240 30 14 2 45 7 70 10 25 3 56 8 70 10 14 3
41 7 60 10 19 3 46 7 60 10 14 3 41 7 60 10 381 60 927 196 1375 342 283 92
703 253 920 352 33 15 89 41 125 56 73 32 482 238 605 305 214 116 491 284
730 443 224 150 556 390 563 409 2 4 7 8 12 8 4 0 21 11 36 24 16 13 106 87
199 164 354 290 839 755 1095 1052 12 14 43 50 69 80 135 154 187 217 293 350
134 169 282 368 394 530 109 159 311 473 359 559 11 20 39 68 62 106 42 73 70
122 135 240 64 117 271 533 317 640 24 55 54 123 67 150 69 150 223 557 306
810 70 213 203 684 222 785 2 14 20 95 39 180 19 85 38 172 41 192 3 21 10 57
15 80 6 24 12 59 16 78 3 19 8 46 10 60 3 14 8 40 10 58 3 17 7 44 9 60 3 15
7 45 11 67 3 22 8 51 10 65 3 14 7 50 10 80 4 30 8 62 11 71 3 9 7 39 9 65 3
27 7 63 9 79 3 17 8 62 11 100 4 39 8 81 11 95 2 14 6 67 10 119 3 51 7 102 9
112 2 11 7 81 10 157 3 75 8 178 10 227 6 121 6 561 0 710 -5 156 -15 331 -20
375 -2 19 -6 71 -10 115 -11 151 -29 313 -50 465 -3 19 -7 51 -9 70 -6 43 -35
233 -42 275 -37 208 -40 225 -79 415 -31 151 -93 403 -136 555 -11 39 -22 78
-24 88 -11 49 -145 475 -164 522 -5 11 -39 103 -76 205 -37 102 -73 199 -80
215 -8 17 -36 84 -63 150 -48 115 -66 156 -150 340 -58 128 -263 530 -332 650
-35 61 -74 130 -88 155 -127 227 -419 668 -634 955 -49 65 -344 431 -403 500
-269 313 -695 747 -945 961 -25 22 -58 51 -75 65 -33 29 -126 109 -165 143
-210 179 -553 435 -865 643 -161 107 -576 363 -590 363 -3 0 -22 11 -43 23
-85 54 -495 263 -687 352 -172 79 -434 188 -630 262 -124 47 -428 153 -455
158 -8 2 -28 8 -45 15 -165 64 -876 241 -1175 294 -14 2 -41 7 -60 10 -19 3
-48 8 -65 11 -16 3 -46 8 -65 10 -19 3 -60 9 -90 15 -65 11 -108 17 -175 25
-27 3 -61 8 -75 10 -14 3 -45 7 -70 10 -25 3 -67 7 -95 11 -27 3 -66 7 -85 9
-107 12 -360 32 -530 41 -93 5 -808 13 -813 9z m648 -299 c105 -3 217 -8 250
-10 33 -3 107 -8 165 -11 58 -4 112 -8 120 -10 8 -2 53 -6 100 -10 47 -4 92
-9 100 -10 9 -2 43 -6 75 -10 62 -7 83 -10 150 -19 145 -20 247 -35 275 -41
13 -2 40 -7 60 -10 20 -3 47 -8 60 -10 14 -3 54 -10 90 -16 36 -6 126 -25 200
-41 74 -16 146 -31 160 -34 183 -36 602 -154 904 -255 451 -151 813 -302 1256
-524 113 -56 249 -128 304 -159 54 -31 100 -56 102 -56 12 0 427 -256 574
-354 336 -224 764 -550 970 -739 19 -18 53 -47 75 -66 330 -280 836 -812 1157
-1216 519 -655 964 -1391 1273 -2105 37 -85 73 -168 80 -185 31 -70 163 -414
168 -440 2 -5 5 -14 9 -20 15 -25 188 -575 203 -647 2 -9 13 -51 25 -93 12
-42 23 -84 25 -93 1 -9 8 -37 15 -62 7 -25 14 -55 16 -68 3 -12 14 -62 25
-110 12 -48 23 -98 25 -112 3 -14 7 -32 9 -40 2 -8 7 -31 10 -50 3 -19 12 -66
20 -105 17 -85 52 -283 60 -345 3 -25 10 -72 15 -105 5 -33 12 -80 15 -105 3
-25 7 -61 10 -80 7 -53 13 -109 20 -175 3 -33 8 -76 10 -95 42 -360 53 -1201
20 -1570 -1 -19 -6 -75 -10 -125 -3 -49 -8 -101 -10 -115 -2 -14 -6 -61 -10
-104 -4 -43 -8 -87 -10 -97 -2 -10 -6 -44 -10 -76 -3 -32 -8 -69 -10 -83 -2
-14 -9 -61 -15 -106 -6 -44 -13 -91 -16 -105 -2 -13 -7 -41 -9 -62 -2 -21 -9
-63 -14 -95 -6 -31 -12 -68 -15 -82 -2 -14 -7 -36 -10 -50 -3 -14 -8 -36 -10
-50 -6 -35 -42 -210 -61 -300 -72 -337 -295 -1080 -385 -1285 -5 -11 -18 -42
-29 -70 -143 -365 -335 -782 -493 -1069 -123 -225 -146 -264 -267 -461 -276
-451 -604 -893 -965 -1305 -162 -184 -172 -194 -406 -430 -274 -275 -336 -333
-642 -596 -455 -392 -1149 -858 -1703 -1143 -65 -33 -125 -66 -133 -73 -8 -7
-16 -12 -16 -10 -1 2 -68 -29 -149 -68 -346 -165 -708 -312 -1052 -428 -154
-52 -385 -125 -435 -137 -8 -2 -58 -16 -110 -31 -52 -14 -102 -28 -110 -30 -8
-2 -49 -12 -90 -22 -166 -42 -438 -102 -530 -117 -14 -2 -34 -6 -45 -8 -27 -6
-95 -18 -125 -23 -14 -2 -41 -7 -60 -10 -19 -4 -42 -8 -50 -9 -21 -3 -124 -19
-130 -20 -3 -1 -34 -5 -70 -9 -36 -5 -72 -10 -80 -11 -8 -2 -44 -6 -80 -10
-36 -4 -72 -8 -80 -10 -8 -2 -49 -6 -90 -9 -41 -4 -93 -9 -115 -11 -22 -2 -76
-6 -120 -10 -44 -3 -102 -8 -130 -10 -270 -23 -1064 -23 -1265 0 -19 2 -73 7
-120 10 -47 4 -103 8 -125 10 -22 2 -72 6 -111 10 -39 3 -79 7 -90 9 -10 2
-48 7 -84 10 -36 4 -90 11 -120 16 -30 5 -77 11 -105 15 -27 3 -75 10 -105 15
-30 5 -71 12 -90 15 -99 16 -170 29 -330 62 -96 19 -182 36 -190 38 -109 21
-488 122 -690 183 -1400 426 -2684 1174 -3768 2197 -52 50 -166 162 -253 250
-164 166 -169 172 -284 300 -38 43 -75 83 -80 89 -6 6 -35 40 -65 76 -30 35
-60 70 -67 78 -7 7 -29 34 -50 60 -21 26 -40 49 -44 52 -3 3 -41 50 -85 105
-553 693 -1037 1521 -1361 2325 -41 102 -78 194 -83 205 -82 188 -316 953
-365 1195 -2 8 -8 33 -13 55 -6 22 -13 51 -16 65 -2 14 -14 70 -25 125 -12 55
-24 114 -26 130 -3 17 -12 64 -20 105 -13 68 -43 244 -49 295 -2 11 -6 38 -9
60 -15 92 -34 251 -42 345 -3 36 -8 75 -10 86 -3 12 -7 62 -10 110 -4 49 -8
103 -10 119 -26 212 -27 1197 0 1425 1 14 6 67 9 118 4 51 9 100 10 110 2 9 7
52 11 95 3 43 8 88 10 100 2 12 6 45 9 72 4 28 8 61 11 75 2 14 7 48 10 75 3
28 7 61 10 75 2 14 7 43 10 65 3 22 10 66 16 97 5 32 12 70 15 85 41 230 116
583 149 698 8 28 34 122 59 210 333 1208 928 2370 1720 3360 44 55 93 116 110
136 17 19 51 60 76 89 44 54 179 207 249 284 77 85 512 517 611 608 389 354
969 800 1292 993 10 5 84 51 165 101 921 569 1971 983 3048 1203 153 31 399
74 490 87 28 3 57 7 65 9 8 1 40 6 70 10 30 4 62 9 70 10 8 1 44 6 80 10 36 4
79 8 95 10 17 2 62 6 100 10 39 3 84 8 100 10 17 2 73 7 125 10 52 4 115 8
140 10 25 2 137 6 250 10 113 4 206 8 207 9 3 3 287 -2 468 -8z"/>
<path d="M9539 16526 c-2 -2 -60 -6 -129 -10 -69 -3 -136 -8 -150 -10 -14 -3
-61 -7 -104 -11 -43 -4 -86 -8 -95 -10 -9 -1 -43 -6 -76 -9 -58 -7 -164 -22
-215 -31 -14 -3 -54 -10 -90 -16 -467 -76 -1071 -261 -1545 -472 -110 -50
-403 -196 -475 -237 -36 -20 -85 -48 -110 -62 -91 -50 -225 -133 -228 -140 -2
-5 -8 -8 -14 -8 -13 0 -327 -213 -431 -292 -90 -69 -107 -91 -113 -150 -8 -79
44 -144 124 -155 56 -8 85 6 208 98 313 233 727 477 1109 652 131 60 431 184
465 192 8 2 74 24 145 49 243 85 576 172 835 220 157 29 179 33 240 41 25 3
56 8 70 10 69 11 131 18 265 30 39 4 81 8 95 10 166 25 782 24 1080 -1 388
-32 931 -134 1260 -236 751 -232 1360 -534 1950 -966 70 -52 139 -95 158 -98
50 -10 95 3 129 36 52 51 62 114 29 178 -26 51 -389 306 -676 474 -210 124
-257 150 -435 237 -380 188 -718 320 -1090 427 -66 19 -136 39 -155 44 -183
53 -637 142 -840 165 -30 3 -66 8 -80 10 -25 5 -73 9 -210 21 -41 3 -91 8
-110 10 -44 6 -785 16 -791 10z"/>
<path d="M4309 14416 c-2 -2 -28 -7 -58 -11 -166 -21 -376 -127 -525 -265
-137 -126 -265 -360 -292 -535 -2 -11 -6 -38 -10 -60 -3 -22 -7 -269 -9 -550
-2 -561 -2 -559 -66 -651 -46 -68 -143 -133 -222 -150 -119 -26 -287 16 -508
126 -99 50 -124 58 -166 56 -57 -2 -112 -36 -138 -87 -33 -62 -14 -157 39
-200 32 -27 231 -124 321 -157 86 -32 183 -57 255 -67 53 -8 204 -8 240 -1 14
3 39 9 55 12 48 10 141 52 198 88 156 101 268 276 305 476 6 32 11 256 12 540
0 267 3 503 7 525 31 223 187 432 393 527 116 54 171 61 480 63 157 1 291 0
298 -3 9 -3 12 -218 12 -1030 l0 -1025 25 -44 c32 -54 74 -76 145 -77 46 0 62
4 92 27 71 55 68 12 68 829 0 693 1 739 19 810 31 121 84 214 171 304 96 99
233 172 374 201 52 10 627 10 633 -1 4 -5 6 -496 6 -1091 l-1 -1082 387 1
c355 1 388 2 416 19 109 66 103 238 -11 292 -32 15 -66 18 -250 17 l-211 0 -1
924 c0 508 3 925 6 925 4 1 102 2 217 3 169 2 216 5 240 18 118 62 119 230 1
287 -42 21 -55 21 -722 21 -604 0 -731 -4 -823 -24 -118 -26 -297 -112 -392
-188 l-59 -48 0 130 0 130 -474 0 c-260 0 -475 -2 -477 -4z"/>
<path d="M12540 14399 c-103 -60 -110 -213 -13 -279 l36 -25 344 -3 343 -3 0
-924 0 -925 -47 -1 c-27 0 -172 0 -323 0 -169 0 -288 -4 -310 -11 -75 -23
-122 -96 -110 -174 9 -57 35 -93 87 -120 42 -21 43 -21 1051 -20 l1009 1 36
28 c20 15 44 41 52 58 31 60 17 147 -32 191 -50 45 -62 46 -573 47 -267 0
-492 0 -500 0 -13 1 -15 39 -14 299 1 163 2 299 3 302 2 10 2000 5 2009 -5 6
-6 94 -136 198 -290 195 -292 234 -345 318 -433 124 -131 286 -223 431 -247
44 -7 233 -8 244 -1 3 2 27 7 51 11 83 12 254 74 387 140 163 80 188 107 188
199 0 95 -50 152 -143 162 -41 5 -58 0 -142 -41 -343 -169 -526 -190 -690 -80
-77 52 -183 164 -244 260 -42 64 -129 206 -136 220 -3 5 -18 30 -33 53 -16 24
-26 47 -23 50 4 3 59 7 124 8 203 4 347 54 473 166 52 47 123 145 155 213 56
122 64 182 60 435 -3 228 -4 244 -32 328 -64 192 -243 359 -439 408 -5 2 -21
6 -35 11 -14 4 -857 9 -1875 10 -1846 3 -1850 3 -1885 -18z m3751 -337 c75
-37 125 -87 160 -159 l33 -65 0 -192 c0 -157 -3 -200 -18 -244 -33 -97 -119
-182 -218 -214 -34 -11 -2652 -19 -2667 -8 -3 3 -7 209 -6 458 l0 452 1335 -2
1335 -3 46 -23z"/>
<path d="M9226 14278 c-169 -43 -300 -174 -351 -350 -33 -117 -17 -316 35
-418 l20 -39 -38 -12 c-129 -42 -264 -137 -348 -244 -142 -181 -183 -415 -113
-648 73 -240 275 -420 533 -473 57 -13 168 -15 581 -16 462 0 553 4 660 26 56
12 189 61 271 101 l92 45 114 -59 c161 -84 256 -112 391 -115 124 -3 157 8
194 63 32 47 31 104 -2 147 -38 49 -60 57 -164 61 -99 3 -177 21 -246 55 -22
11 -41 22 -43 23 -2 2 23 35 56 74 105 125 142 232 145 416 l2 115 93 0 c113
0 149 14 182 71 42 76 4 167 -80 189 -19 5 -186 9 -370 9 -372 0 -382 -2 -420
-64 -35 -57 -24 -126 28 -172 32 -28 63 -33 192 -33 l107 0 -3 -97 c-4 -161
-18 -197 -109 -291 l-64 -65 -33 25 c-18 13 -80 58 -138 99 -58 40 -109 77
-115 82 -8 7 -331 236 -408 289 -49 34 -192 139 -199 146 -5 5 22 8 59 7 159
-3 286 46 389 149 65 65 114 154 134 241 13 57 16 199 6 264 -29 182 -161 336
-336 393 -59 19 -90 21 -349 22 -244 1 -295 -1 -355 -16z m649 -275 c94 -50
132 -123 130 -251 -3 -120 -44 -191 -140 -237 -36 -17 -64 -19 -295 -19 -282
0 -306 4 -364 59 -57 53 -76 105 -76 208 0 51 6 101 13 120 29 68 92 122 161
136 16 4 142 6 280 6 234 -1 254 -3 291 -22z m-665 -788 c14 -8 379 -267 425
-301 11 -8 170 -121 353 -251 l334 -236 -39 -15 c-21 -7 -47 -18 -58 -22 -29
-12 -84 -28 -125 -36 -19 -4 -258 -8 -530 -9 -534 -1 -563 1 -663 51 -28 15
-78 53 -109 85 -89 91 -130 200 -124 325 13 243 211 424 461 419 33 0 67 -5
75 -10z"/>
<path d="M9924 11419 c-52 -10 -74 -32 -142 -139 -62 -97 -67 -108 -67 -161 0
-50 4 -61 42 -110 23 -30 51 -64 63 -77 12 -13 20 -25 19 -27 -2 -1 -34 -16
-70 -33 -185 -83 -342 -237 -437 -427 -36 -71 -66 -154 -76 -211 -63 -338 26
-637 257 -866 116 -114 305 -220 395 -220 113 0 182 146 111 236 -11 14 -66
48 -123 75 -222 107 -351 299 -363 541 -8 157 24 269 113 397 86 121 218 212
364 250 104 26 247 22 345 -11 176 -60 308 -175 382 -336 39 -83 56 -155 58
-253 5 -169 -48 -309 -172 -452 -46 -54 -59 -94 -48 -152 14 -77 110 -129 189
-103 61 20 186 174 243 300 110 244 111 534 3 775 -92 206 -265 375 -477 469
-24 11 -43 21 -43 23 0 2 26 37 59 77 90 114 89 148 -3 294 -60 95 -87 125
-126 138 -29 9 -453 12 -496 3z"/>
<path d="M3343 11070 c-57 -34 -68 -67 -98 -282 -5 -40 -7 -57 -20 -155 -2
-21 -7 -69 -11 -108 -4 -38 -8 -83 -10 -100 -24 -224 -24 -1002 0 -1130 2 -11
7 -56 10 -101 4 -44 9 -94 12 -110 3 -16 7 -49 9 -74 1 -25 10 -89 19 -144 9
-54 18 -113 21 -130 12 -92 115 -551 149 -661 1 -5 8 -30 15 -55 23 -82 93
-305 106 -335 7 -16 20 -55 30 -85 10 -30 20 -59 24 -65 3 -5 6 -12 6 -15 1
-12 92 -235 147 -360 86 -195 240 -495 325 -635 7 -11 15 -27 19 -35 14 -28
137 -225 197 -315 787 -1179 1918 -2079 3227 -2567 74 -28 180 -65 235 -83
l100 -33 5 -243 c5 -238 6 -245 29 -278 59 -83 182 -80 241 7 l25 35 -1 2276
c0 1252 -3 2294 -6 2316 -12 84 -75 198 -133 241 -15 10 -38 28 -51 40 -14 11
-74 51 -133 87 l-107 67 -1 415 c0 228 2 415 4 415 2 0 49 -45 105 -100 56
-56 113 -103 126 -107 37 -9 108 3 135 23 48 36 71 117 48 176 -5 13 -118 132
-251 266 -259 258 -265 263 -347 247 -33 -6 -73 -41 -276 -243 -131 -130 -245
-249 -253 -264 -44 -84 15 -195 110 -205 66 -8 88 1 148 58 29 28 76 74 105
101 l52 50 -1 -336 c0 -185 -2 -336 -5 -336 -3 0 -34 14 -70 30 -35 17 -66 30
-69 30 -2 0 -23 9 -47 20 -89 40 -406 160 -426 160 -6 0 -19 4 -29 10 -14 8
-147 51 -202 66 -8 2 -78 22 -154 44 -77 22 -149 42 -160 45 -12 2 -68 16
-126 31 -58 14 -109 27 -115 28 -5 1 -47 11 -92 21 l-83 18 0 230 0 231 98
-97 c111 -108 144 -128 204 -117 84 16 135 85 123 168 -6 45 -16 56 -216 257
l-209 211 0 103 0 104 109 -106 c110 -107 117 -111 189 -109 62 2 120 57 129
121 9 74 3 83 -255 341 -268 268 -276 273 -360 251 -54 -15 -512 -472 -528
-528 -33 -113 68 -213 182 -181 26 7 66 39 137 109 55 54 101 99 101 99 1 0 1
-47 1 -104 l-1 -104 -203 -203 c-112 -111 -207 -213 -212 -227 -15 -40 -10
-103 11 -137 34 -56 117 -82 180 -57 14 5 69 53 122 106 53 53 98 93 100 89 4
-7 3 -345 -1 -382 0 -8 -7 -11 -17 -7 -13 5 -160 31 -289 52 -16 3 -43 7 -60
10 -43 7 -71 11 -155 24 -77 11 -94 13 -190 25 -30 3 -66 8 -80 10 -14 2 -50
6 -80 10 -30 3 -71 8 -90 10 -59 7 -195 21 -290 30 -166 15 -398 30 -630 40
-69 3 -128 9 -132 13 -3 4 -9 34 -13 67 -3 33 -8 71 -10 85 -2 14 -6 59 -10
100 -3 41 -7 89 -9 105 -24 186 -24 842 -1 1025 3 19 7 67 10 105 3 39 8 81
10 95 2 14 7 50 10 80 3 30 10 82 15 115 12 74 21 142 25 177 4 40 -30 105
-67 128 -43 26 -113 26 -155 0z m592 -2404 c22 -2 83 -7 135 -10 52 -4 113 -9
135 -11 57 -6 157 -15 229 -21 33 -3 68 -7 76 -9 8 -2 47 -7 85 -10 39 -3 94
-10 124 -16 30 -5 56 -7 58 -5 3 2 17 0 33 -4 16 -5 57 -11 92 -15 35 -3 74
-8 88 -10 33 -6 66 -11 190 -31 58 -9 115 -18 128 -20 12 -2 32 -6 45 -8 12
-1 36 -6 52 -9 17 -4 46 -9 65 -12 19 -3 103 -19 185 -36 83 -17 161 -33 175
-36 37 -6 349 -81 390 -93 19 -5 89 -25 155 -44 244 -70 549 -173 678 -229 17
-8 61 -27 97 -42 100 -42 296 -138 380 -185 76 -43 290 -180 290 -185 0 -2
-886 -3 -1970 -3 l-1970 1 -19 52 c-82 220 -177 547 -236 810 -19 88 -37 168
-39 179 -5 17 2 18 152 12 86 -4 175 -9 197 -10z m3925 -1557 l0 -219 -27 -1
c-37 -1 -3583 -1 -3606 0 -13 1 -43 53 -112 193 -52 106 -99 204 -104 219 l-9
26 1929 0 1929 0 0 -218z m-22 -518 l22 -1 0 -482 0 -483 -1045 0 c-1010 0
-1045 -1 -1080 -19 -93 -51 -100 -186 -12 -250 28 -21 34 -21 1083 -24 l1054
-2 0 -230 0 -230 -540 0 c-436 0 -547 -3 -573 -14 -112 -47 -121 -206 -14
-263 29 -15 81 -17 577 -18 l545 0 3 -389 c2 -367 1 -388 -15 -381 -10 4 -36
13 -58 20 -187 59 -523 200 -773 325 -486 242 -908 526 -1366 920 -231 198
-549 533 -775 815 -194 242 -501 692 -481 705 6 4 3335 5 3448 1z"/>
<path d="M16209 11067 c-65 -43 -78 -99 -54 -229 3 -16 7 -40 10 -55 3 -16 8
-57 11 -93 4 -36 8 -68 10 -71 2 -3 6 -39 9 -80 3 -41 8 -87 10 -104 28 -227
27 -908 -1 -1170 -13 -125 -32 -277 -36 -280 -2 -2 -59 -6 -128 -9 -69 -3
-161 -8 -205 -11 -44 -3 -111 -7 -150 -10 -99 -6 -201 -14 -266 -21 -31 -3
-78 -7 -105 -9 -49 -4 -117 -12 -184 -20 -19 -3 -57 -7 -85 -10 -27 -3 -66 -7
-85 -10 -19 -3 -55 -7 -80 -10 -25 -2 -54 -6 -65 -9 -11 -2 -47 -7 -80 -10
-33 -4 -67 -9 -75 -11 -8 -2 -35 -6 -60 -9 -45 -6 -82 -12 -130 -21 -14 -3
-43 -8 -65 -11 -22 -3 -87 -14 -145 -24 -57 -11 -106 -18 -107 -16 -2 2 -2 92
-1 201 l3 197 97 -96 c112 -111 140 -127 206 -114 97 18 148 115 107 202 -9
18 -106 122 -215 232 l-200 198 0 106 0 105 98 -97 c53 -54 113 -104 132 -111
66 -27 133 -6 173 55 31 48 35 94 12 142 -9 18 -122 138 -253 268 -202 201
-242 236 -274 242 -81 15 -96 4 -357 -258 l-245 -245 -3 -58 c-3 -46 0 -65 17
-91 26 -42 92 -73 140 -66 48 8 74 25 161 113 116 117 106 117 106 -1 l1 -102
-200 -200 c-109 -109 -206 -212 -214 -227 -20 -40 -18 -106 6 -144 35 -56 116
-81 181 -57 13 6 68 53 121 106 54 53 99 96 101 96 3 0 4 -103 4 -230 l0 -229
-76 -17 c-42 -9 -139 -32 -216 -51 -77 -19 -148 -37 -159 -39 -47 -9 -377
-108 -516 -155 -156 -52 -407 -150 -534 -208 -38 -18 -71 -30 -74 -27 -6 7 -9
666 -2 666 3 0 46 -41 95 -91 103 -104 127 -119 188 -119 106 0 176 115 127
209 -10 20 -123 140 -252 268 -328 325 -286 326 -623 -11 -192 -192 -245 -250
-253 -279 -27 -98 38 -187 136 -187 60 0 73 9 185 118 l97 97 1 -55 c1 -74 1
-728 0 -761 -1 -18 -9 -30 -27 -38 -59 -26 -255 -165 -294 -208 -23 -24 -56
-75 -74 -111 l-31 -67 -1 -2305 c-2 -2218 -1 -2306 17 -2341 56 -110 217 -103
262 12 10 25 13 94 13 261 l-1 227 160 55 c624 211 1206 512 1749 904 91 65
207 152 216 162 3 3 28 23 55 45 225 178 622 554 801 760 34 39 81 93 106 121
113 129 307 383 440 579 93 136 258 399 258 411 0 3 8 18 18 32 54 78 243 455
333 663 167 391 291 772 382 1179 19 85 38 171 41 190 3 19 8 46 11 60 7 34
33 186 40 234 3 21 7 48 10 60 2 12 7 52 10 89 4 37 8 76 10 85 1 9 6 60 10
112 4 52 9 103 11 113 22 117 21 908 -1 1049 -2 12 -6 55 -10 93 -12 132 -19
196 -31 280 -3 22 -7 51 -9 65 -15 108 -29 171 -44 197 -38 62 -140 82 -202
40z m-89 -2394 c0 -4 -7 -42 -16 -83 -9 -41 -18 -85 -20 -98 -22 -116 -111
-432 -175 -628 l-80 -242 -1972 0 -1972 0 27 21 c102 82 434 263 653 357 166
71 440 169 625 224 85 25 169 50 185 55 100 31 544 137 658 157 18 3 50 9 72
14 22 5 105 20 185 34 80 14 154 28 165 30 11 2 43 7 70 10 28 4 57 9 65 11 8
2 38 6 65 10 28 3 61 8 75 10 14 3 41 7 60 9 19 3 67 9 105 15 39 5 99 13 135
16 36 3 76 8 90 10 14 2 49 7 78 10 28 3 73 7 100 10 26 3 67 7 92 9 25 3 77
8 115 11 39 3 95 8 125 10 30 3 95 8 145 11 49 3 91 6 92 7 6 7 253 7 253 0z
m-420 -1354 c0 -11 -54 -128 -137 -296 -59 -119 -68 -133 -92 -134 -28 -1
-3599 0 -3616 0 -6 1 -10 81 -10 220 l0 218 1928 0 c1060 0 1927 -4 1927 -8z
m-384 -732 c6 -6 1 -16 -122 -207 -285 -446 -739 -970 -1135 -1312 -75 -64
-100 -86 -130 -112 -59 -53 -349 -272 -464 -351 -449 -310 -902 -544 -1430
-739 -133 -49 -185 -66 -186 -58 -4 25 -3 762 1 763 3 1 250 2 550 3 506 1
547 3 575 20 44 26 65 60 72 115 4 40 1 56 -16 84 -47 76 -12 71 -631 77
l-555 5 0 225 0 225 1056 5 c1138 5 1063 2 1113 55 27 30 37 63 32 106 -7 54
-34 96 -76 116 -32 16 -111 17 -1080 18 l-1045 0 -1 480 c0 264 1 482 2 485 3
7 3463 4 3470 -3z"/>
<path d="M9737 10278 c-57 -29 -79 -71 -74 -141 4 -72 30 -101 124 -141 37
-16 88 -43 113 -60 46 -31 160 -143 160 -157 0 -4 6 -14 13 -21 21 -20 67
-124 84 -187 21 -77 24 -204 7 -287 -17 -86 -91 -235 -145 -292 -107 -113
-220 -176 -370 -208 -48 -9 -205 -4 -254 9 -127 35 -220 89 -310 183 -214 220
-233 577 -44 819 21 28 50 64 63 80 75 93 5 235 -117 235 -66 0 -109 -34 -194
-150 -66 -90 -132 -225 -148 -305 -44 -216 -40 -357 16 -532 125 -392 492
-649 907 -638 511 14 905 422 903 935 -1 47 -2 94 -5 105 -2 11 -6 38 -10 60
-44 260 -227 512 -466 641 -128 70 -193 83 -253 52z"/>
<path d="M8549 7677 c-73 -38 -79 -59 -79 -300 0 -154 4 -216 14 -240 38 -90
154 -118 227 -55 50 44 52 59 54 282 1 175 -2 214 -16 246 -35 77 -122 107
-200 67z"/>
<path d="M11037 7686 c-21 -8 -45 -22 -53 -33 -40 -49 -42 -68 -42 -413 0
-386 3 -402 77 -439 73 -38 146 -20 191 47 l25 36 0 357 c0 346 -1 358 -21
385 -47 63 -109 84 -177 60z"/>
<path d="M9164 7596 c-17 -8 -42 -29 -55 -47 l-24 -34 0 -320 c0 -315 0 -320
22 -351 65 -91 206 -80 252 20 16 37 18 68 17 341 -2 292 -2 301 -24 337 -38
61 -118 84 -188 54z"/>
<path d="M10410 7592 c-19 -9 -45 -32 -57 -50 l-22 -34 -1 -497 c0 -550 -1
-548 62 -593 25 -17 46 -23 85 -22 57 0 90 18 127 68 20 26 21 40 21 521 0
271 -3 506 -7 522 -23 86 -124 128 -208 85z"/>
<path d="M9806 7520 c-40 -12 -66 -38 -86 -85 -15 -35 -17 -75 -16 -295 2
-234 4 -258 21 -288 56 -95 201 -96 254 -2 20 36 21 52 21 298 0 143 -4 271
-9 284 -27 71 -111 111 -185 88z"/>
<path d="M8560 6773 c-8 -3 -26 -15 -38 -27 -53 -48 -52 -33 -52 -643 0 -521
1 -571 18 -603 60 -119 237 -100 269 30 5 19 9 285 8 590 0 551 0 555 -22 590
-12 19 -35 43 -51 53 -29 16 -99 22 -132 10z"/>
<path d="M9190 6387 c-43 -11 -86 -50 -99 -91 -6 -18 -9 -140 -8 -283 2 -237
3 -253 23 -280 62 -85 197 -81 249 8 18 32 20 52 19 289 0 221 -2 259 -17 287
-31 58 -101 88 -167 70z"/>
<path d="M11040 6358 c-36 -13 -78 -57 -89 -92 -5 -17 -9 -224 -9 -461 0 -345
3 -437 14 -465 43 -108 211 -113 263 -8 17 35 18 68 17 486 l-1 449 -28 36
c-15 20 -36 41 -47 47 -27 14 -91 19 -120 8z"/>
<path d="M10434 5998 c-35 -9 -91 -66 -99 -101 -3 -12 -5 -175 -3 -360 l3
-338 42 -40 c24 -22 53 -40 68 -40 14 -1 31 -2 38 -3 20 -3 70 15 91 33 48 42
50 56 51 401 2 287 0 330 -15 366 -30 70 -100 103 -176 82z"/>
<path d="M9794 5876 c-17 -8 -44 -31 -60 -51 l-29 -38 0 -272 0 -272 28 -40
c60 -87 191 -82 247 10 18 30 20 52 20 297 0 290 -4 311 -61 353 -34 25 -105
31 -145 13z"/>
<path d="M9185 5208 c-40 -14 -75 -46 -90 -83 -9 -22 -12 -125 -11 -400 1
-366 1 -370 23 -401 61 -86 191 -83 245 5 22 36 23 40 23 401 0 346 -1 367
-20 405 -31 61 -107 94 -170 73z"/>
<path d="M8560 4833 c-8 -3 -26 -15 -38 -27 -52 -47 -52 -46 -52 -483 0 -464
-1 -457 80 -500 70 -37 144 -18 193 51 22 31 22 34 22 446 0 408 -1 416 -22
450 -12 19 -35 43 -51 53 -29 16 -99 22 -132 10z"/>
<path d="M10422 4705 c-90 -40 -93 -54 -91 -458 1 -340 1 -342 24 -378 57 -88
175 -90 241 -4 l29 38 -1 356 c0 261 -3 362 -12 378 -35 63 -127 97 -190 68z"/>
<path d="M11020 4612 c-21 -11 -43 -35 -56 -60 -21 -41 -22 -51 -20 -451 1
-397 2 -410 22 -437 31 -42 67 -65 105 -68 83 -6 152 47 162 125 3 24 5 215 4
424 -2 428 -2 427 -77 465 -49 25 -95 25 -140 2z"/>
<path d="M9795 4211 c-30 -13 -75 -61 -82 -90 -4 -14 -7 -170 -7 -346 0 -303
1 -323 20 -355 28 -48 73 -72 135 -72 43 1 57 6 81 29 58 55 58 54 58 410 0
310 -1 330 -20 361 -37 60 -121 89 -185 63z"/>
<path d="M6616 3479 c-84 -23 -125 -118 -87 -203 23 -54 78 -86 144 -86 109 0
230 -54 317 -140 86 -86 140 -208 140 -316 0 -75 30 -123 93 -149 67 -28 150
3 183 67 20 39 23 96 8 188 -27 167 -92 295 -211 416 -115 118 -259 193 -423
220 -54 9 -136 10 -164 3z"/>
<path d="M12938 3479 c-156 -22 -307 -99 -428 -219 -142 -142 -220 -317 -223
-501 -2 -76 1 -89 23 -122 43 -63 141 -82 199 -40 47 36 63 67 67 134 16 252
191 435 434 455 95 8 143 34 168 91 22 51 20 91 -7 138 -35 61 -107 81 -233
64z"/>
<path d="M8600 3340 c-48 -9 -75 -25 -99 -59 -52 -73 -18 -190 64 -221 11 -4
52 -10 92 -14 169 -16 303 -105 381 -254 46 -88 52 -136 55 -402 2 -236 3
-246 24 -276 62 -86 195 -82 248 7 19 32 20 52 20 299 0 245 -2 272 -23 350
-83 304 -332 524 -641 566 -73 10 -84 10 -121 4z"/>
<path d="M10980 3334 c-325 -48 -579 -285 -644 -604 -11 -55 -15 -142 -16
-320 0 -215 2 -249 17 -279 25 -48 63 -73 120 -78 39 -4 55 0 82 19 75 51 75
51 76 316 2 269 6 303 47 389 67 144 207 245 365 265 118 15 121 16 161 53 35
32 37 37 37 97 0 125 -72 167 -245 142z"/>
<path d="M9815 2952 c-32 -7 -74 -41 -92 -75 -15 -28 -17 -76 -18 -382 -1
-299 -4 -358 -18 -405 -63 -203 -243 -338 -452 -338 -209 0 -390 136 -451 338
-14 44 -18 104 -19 300 -1 146 -6 256 -13 271 -24 58 -107 100 -169 84 -38 -9
-81 -42 -98 -75 -23 -45 -20 -508 4 -615 80 -355 386 -598 751 -597 221 1 420
91 569 259 28 31 51 53 51 47 1 -28 154 -164 240 -212 136 -76 342 -114 480
-89 19 4 49 9 65 12 53 10 161 55 223 93 188 115 310 292 358 517 11 54 13
534 2 566 -34 97 -165 129 -239 59 -43 -40 -46 -65 -46 -310 -1 -283 -9 -329
-84 -441 -139 -207 -412 -269 -628 -142 -57 33 -132 109 -167 169 -57 98 -63
142 -64 517 0 310 -2 345 -19 377 -30 58 -94 86 -166 72z"/>
<path d="M7942 2483 c-18 -9 -43 -30 -55 -47 -21 -30 -22 -43 -27 -281 -4
-208 -8 -255 -22 -280 -42 -77 -109 -118 -194 -121 -54 -2 -69 2 -115 29 -42
25 -60 44 -82 88 -27 53 -29 63 -29 182 0 101 -4 133 -18 159 -54 103 -203
104 -256 1 -18 -36 -20 -55 -18 -184 2 -79 5 -151 7 -159 2 -8 7 -28 12 -45
27 -105 132 -239 233 -298 123 -72 286 -90 421 -46 113 37 233 136 289 239 59
108 65 150 66 426 1 250 1 251 -24 286 -43 64 -120 85 -188 51z"/>
<path d="M11632 2484 c-18 -9 -43 -31 -55 -48 -21 -30 -22 -40 -24 -271 0
-132 3 -265 9 -295 14 -84 72 -191 137 -257 167 -171 427 -204 633 -83 115 69
207 195 238 327 15 65 16 309 1 343 -35 83 -131 114 -210 69 -60 -34 -71 -65
-74 -219 -4 -155 -15 -189 -80 -245 -67 -58 -157 -70 -238 -31 -43 20 -69 46
-100 101 -21 38 -22 51 -23 280 -2 261 -5 275 -63 319 -35 26 -109 31 -151 10z"/>
</g>
</svg>
